<svg xmlns="http://www.w3.org/2000/svg" width="1920" height="1080" viewBox="0 0 1920 1080"><defs>
    <radialGradient id="glow"><stop stop-color="#f2c582" stop-opacity=".14"/><stop offset="1" stop-color="#0e0f0c" stop-opacity="0"/></radialGradient>
    <pattern id="grid" width="72" height="72" patternUnits="userSpaceOnUse"><path d="M72 0H0V72" fill="none" stroke="#f7f4ef" stroke-opacity=".045"/></pattern>
  </defs>
  <rect width="1920" height="1080" fill="#0e0f0c"/>
  <ellipse cx="1580" cy="280" rx="850" ry="680" fill="url(#glow)"/>
  <rect width="1920" height="1080" fill="url(#grid)"/>
  <path d="M1500 1080L1920 450V1080Z" fill="#f2c582" opacity=".065"/>
  <path d="M1670 1080L1920 705M1730 1080L1920 795" stroke="#f2c582" stroke-opacity=".2" stroke-width="2"/>
  <path d="M80 135H1840M80 982H1840" stroke="#f7f4ef" stroke-opacity=".16"/>
  <path d="M80 135H235" stroke="#f2c582" stroke-width="5"/>
  <path d="M1780 66L1789 82L1805 91L1789 100L1780 116L1771 100L1755 91L1771 82Z" fill="#f2c582"/>
  <g fill="#f2c582" opacity=".15" transform="translate(1800 900) rotate(-15)"><ellipse cy="12" rx="19" ry="15"/><ellipse cx="-24" cy="-7" rx="7" ry="10"/><ellipse cx="-9" cy="-19" rx="7" ry="10"/><ellipse cx="8" cy="-19" rx="7" ry="10"/><ellipse cx="24" cy="-7" rx="7" ry="10"/></g></svg>